<mxfile host="65bd71144e" scale="1" border="0">
    <diagram id="AzmIc19uWYascQ04gYRs" name="Page-1">
        <mxGraphModel dx="1900" dy="2224" grid="1" gridSize="10" guides="1" tooltips="1" connect="1" arrows="1" fold="1" page="1" pageScale="1" pageWidth="850" pageHeight="1100" background="#FFFFFF" math="0" shadow="0">
            <root>
                <mxCell id="0"/>
                <mxCell id="1" parent="0"/>
                <mxCell id="92" value="" style="group;movable=0;resizable=0;rotatable=0;deletable=0;editable=0;locked=1;connectable=0;" parent="1" vertex="1" connectable="0">
                    <mxGeometry x="26.82179212606455" y="90" width="1300" height="370" as="geometry"/>
                </mxCell>
                <mxCell id="81" value="" style="group;movable=0;resizable=0;rotatable=0;deletable=0;editable=0;locked=1;connectable=0;" parent="92" vertex="1" connectable="0">
                    <mxGeometry width="1300" height="370" as="geometry"/>
                </mxCell>
                <mxCell id="139" value="" style="rounded=0;whiteSpace=wrap;html=1;container=0;" parent="1" vertex="1">
                    <mxGeometry x="675" y="830" width="960" height="60" as="geometry"/>
                </mxCell>
                <mxCell id="94" value="" style="rounded=0;whiteSpace=wrap;html=1;container=0;" parent="1" vertex="1">
                    <mxGeometry x="355" y="830" width="320" height="60" as="geometry"/>
                </mxCell>
                <mxCell id="95" value="0x7C00" style="text;html=1;align=center;verticalAlign=middle;whiteSpace=wrap;rounded=0;rotation=-35;container=0;" parent="1" vertex="1">
                    <mxGeometry x="345" y="790" width="60" height="30" as="geometry"/>
                </mxCell>
                <mxCell id="96" value="0x7E00" style="text;html=1;align=center;verticalAlign=middle;whiteSpace=wrap;rounded=0;rotation=-35;container=0;" parent="1" vertex="1">
                    <mxGeometry x="665" y="790" width="60" height="30" as="geometry"/>
                </mxCell>
                <mxCell id="98" value="Stage2" style="rounded=0;whiteSpace=wrap;html=1;container=0;" parent="1" vertex="1">
                    <mxGeometry x="675" y="845" width="304.82" height="30" as="geometry"/>
                </mxCell>
                <mxCell id="99" value="" style="rounded=0;whiteSpace=wrap;html=1;container=0;" parent="1" vertex="1">
                    <mxGeometry x="35" y="830" width="320" height="60" as="geometry"/>
                </mxCell>
                <mxCell id="100" value="FAT" style="rounded=0;whiteSpace=wrap;html=1;container=0;" parent="1" vertex="1">
                    <mxGeometry x="35.00179212606455" y="845" width="237" height="30" as="geometry"/>
                </mxCell>
                <mxCell id="103" value="Stack" style="rounded=0;whiteSpace=wrap;html=1;container=0;" parent="1" vertex="1">
                    <mxGeometry x="285" y="845" width="70" height="30" as="geometry"/>
                </mxCell>
                <mxCell id="105" value="0x0500" style="text;html=1;align=center;verticalAlign=middle;whiteSpace=wrap;rounded=0;rotation=-35;container=0;" parent="1" vertex="1">
                    <mxGeometry x="30" y="790" width="60" height="30" as="geometry"/>
                </mxCell>
                <mxCell id="111" value="0x7FFFF" style="text;html=1;align=center;verticalAlign=middle;whiteSpace=wrap;rounded=0;rotation=-35;container=0;" parent="1" vertex="1">
                    <mxGeometry x="1615" y="790" width="60" height="30" as="geometry"/>
                </mxCell>
                <mxCell id="128" value="&lt;font style=&quot;font-size: 24px;&quot;&gt;...&lt;/font&gt;" style="text;html=1;align=center;verticalAlign=middle;whiteSpace=wrap;rounded=0;container=0;" parent="1" vertex="1">
                    <mxGeometry x="1000" y="845" width="20" height="30" as="geometry"/>
                </mxCell>
                <mxCell id="129" value="0x7F000" style="text;html=1;align=center;verticalAlign=middle;whiteSpace=wrap;rounded=0;rotation=0;container=0;" parent="1" vertex="1">
                    <mxGeometry x="1558" y="770" width="60" height="30" as="geometry"/>
                </mxCell>
                <mxCell id="130" value="" style="endArrow=none;html=1;entryX=0.75;entryY=0;entryDx=0;entryDy=0;" parent="1" edge="1">
                    <mxGeometry width="50" height="50" relative="1" as="geometry">
                        <mxPoint x="1560" y="780" as="sourcePoint"/>
                        <mxPoint x="1560" y="830" as="targetPoint"/>
                    </mxGeometry>
                </mxCell>
                <mxCell id="131" value="Kernel Buffer End" style="text;html=1;align=center;verticalAlign=middle;whiteSpace=wrap;rounded=0;rotation=0;container=0;" parent="1" vertex="1">
                    <mxGeometry x="1560" y="741" width="100" height="30" as="geometry"/>
                </mxCell>
                <mxCell id="133" value="" style="endArrow=none;html=1;" parent="1" edge="1">
                    <mxGeometry width="50" height="50" relative="1" as="geometry">
                        <mxPoint x="1560" y="830" as="sourcePoint"/>
                        <mxPoint x="1560" y="890" as="targetPoint"/>
                    </mxGeometry>
                </mxCell>
                <mxCell id="134" value="0x66000" style="text;html=1;align=center;verticalAlign=middle;whiteSpace=wrap;rounded=0;rotation=0;container=0;" parent="1" vertex="1">
                    <mxGeometry x="1351" y="770" width="60" height="30" as="geometry"/>
                </mxCell>
                <mxCell id="135" value="" style="endArrow=none;html=1;entryX=0.75;entryY=0;entryDx=0;entryDy=0;" parent="1" edge="1">
                    <mxGeometry width="50" height="50" relative="1" as="geometry">
                        <mxPoint x="1355" y="780" as="sourcePoint"/>
                        <mxPoint x="1355" y="830" as="targetPoint"/>
                    </mxGeometry>
                </mxCell>
                <mxCell id="136" value="" style="endArrow=none;html=1;entryX=0.563;entryY=1;entryDx=0;entryDy=0;entryPerimeter=0;" parent="1" edge="1">
                    <mxGeometry width="50" height="50" relative="1" as="geometry">
                        <mxPoint x="1355" y="830" as="sourcePoint"/>
                        <mxPoint x="1355.3200000000002" y="890" as="targetPoint"/>
                    </mxGeometry>
                </mxCell>
                <mxCell id="138" value="Kernel Buffer Start" style="text;html=1;align=center;verticalAlign=middle;whiteSpace=wrap;rounded=0;rotation=0;container=0;" parent="1" vertex="1">
                    <mxGeometry x="1355" y="741" width="105" height="30" as="geometry"/>
                </mxCell>
                <mxCell id="140" value="Kernel" style="rounded=0;whiteSpace=wrap;html=1;container=0;" parent="1" vertex="1">
                    <mxGeometry x="1355" y="845" width="205" height="30" as="geometry"/>
                </mxCell>
                <mxCell id="65" value="" style="rounded=0;whiteSpace=wrap;html=1;container=0;" parent="1" vertex="1">
                    <mxGeometry x="350" y="270" width="320" height="60" as="geometry"/>
                </mxCell>
                <mxCell id="66" value="0x7C00" style="text;html=1;align=center;verticalAlign=middle;whiteSpace=wrap;rounded=0;rotation=-35;container=0;" parent="1" vertex="1">
                    <mxGeometry x="340" y="230" width="60" height="30" as="geometry"/>
                </mxCell>
                <mxCell id="67" value="0x7E00" style="text;html=1;align=center;verticalAlign=middle;whiteSpace=wrap;rounded=0;rotation=-35;container=0;" parent="1" vertex="1">
                    <mxGeometry x="660" y="230" width="60" height="30" as="geometry"/>
                </mxCell>
                <mxCell id="69" value="" style="rounded=0;whiteSpace=wrap;html=1;container=0;" parent="1" vertex="1">
                    <mxGeometry x="670" y="270" width="320" height="60" as="geometry"/>
                </mxCell>
                <mxCell id="72" value="" style="rounded=0;whiteSpace=wrap;html=1;container=0;" parent="1" vertex="1">
                    <mxGeometry x="30" y="270" width="320" height="60" as="geometry"/>
                </mxCell>
                <mxCell id="73" value="FAT" style="rounded=0;whiteSpace=wrap;html=1;container=0;" parent="1" vertex="1">
                    <mxGeometry x="30.00179212606455" y="285" width="237" height="30" as="geometry"/>
                </mxCell>
                <mxCell id="78" value="Stack" style="rounded=0;whiteSpace=wrap;html=1;container=0;" parent="1" vertex="1">
                    <mxGeometry x="280" y="285" width="70" height="30" as="geometry"/>
                </mxCell>
                <mxCell id="79" value="&lt;font style=&quot;font-size: 24px;&quot;&gt;...&lt;/font&gt;" style="text;html=1;align=center;verticalAlign=middle;whiteSpace=wrap;rounded=0;container=0;" parent="1" vertex="1">
                    <mxGeometry x="1000" y="280" width="20" height="30" as="geometry"/>
                </mxCell>
                <mxCell id="86" value="0x0500" style="text;html=1;align=center;verticalAlign=middle;whiteSpace=wrap;rounded=0;rotation=-35;container=0;" parent="1" vertex="1">
                    <mxGeometry x="25" y="230" width="60" height="30" as="geometry"/>
                </mxCell>
                <mxCell id="25" value="" style="rounded=0;whiteSpace=wrap;html=1;container=0;" parent="1" vertex="1">
                    <mxGeometry x="350" y="80" width="320" height="60" as="geometry"/>
                </mxCell>
                <mxCell id="26" value="0x7C00" style="text;html=1;align=center;verticalAlign=middle;whiteSpace=wrap;rounded=0;rotation=-35;container=0;" parent="1" vertex="1">
                    <mxGeometry x="340" y="40" width="60" height="30" as="geometry"/>
                </mxCell>
                <mxCell id="27" value="0x7E00" style="text;html=1;align=center;verticalAlign=middle;whiteSpace=wrap;rounded=0;rotation=-35;container=0;" parent="1" vertex="1">
                    <mxGeometry x="660" y="40" width="60" height="30" as="geometry"/>
                </mxCell>
                <mxCell id="31" value="" style="rounded=0;whiteSpace=wrap;html=1;container=0;" parent="1" vertex="1">
                    <mxGeometry x="670" y="80" width="320" height="60" as="geometry"/>
                </mxCell>
                <mxCell id="37" value="" style="rounded=0;whiteSpace=wrap;html=1;container=0;" parent="1" vertex="1">
                    <mxGeometry x="30" y="80" width="320" height="60" as="geometry"/>
                </mxCell>
                <mxCell id="40" value="0x0500" style="text;html=1;align=center;verticalAlign=middle;whiteSpace=wrap;rounded=0;rotation=-35;container=0;" parent="1" vertex="1">
                    <mxGeometry x="20" y="30" width="60" height="30" as="geometry"/>
                </mxCell>
                <mxCell id="44" value="Stack" style="rounded=0;whiteSpace=wrap;html=1;container=0;" parent="1" vertex="1">
                    <mxGeometry x="280" y="95" width="70" height="30" as="geometry"/>
                </mxCell>
                <mxCell id="53" value="&lt;font style=&quot;font-size: 24px;&quot;&gt;...&lt;/font&gt;" style="text;html=1;align=center;verticalAlign=middle;whiteSpace=wrap;rounded=0;container=0;" parent="1" vertex="1">
                    <mxGeometry x="1000" y="90" width="20" height="30" as="geometry"/>
                </mxCell>
                <mxCell id="150" value="&lt;span style=&quot;color: rgb(0, 0, 0);&quot;&gt;Stage 1&lt;/span&gt;" style="rounded=0;whiteSpace=wrap;html=1;container=0;" parent="1" vertex="1">
                    <mxGeometry x="350" y="95" width="320" height="30" as="geometry"/>
                </mxCell>
                <mxCell id="153" value="&lt;span style=&quot;color: rgb(0, 0, 0);&quot;&gt;Stage 1&lt;/span&gt;" style="rounded=0;whiteSpace=wrap;html=1;container=0;" parent="1" vertex="1">
                    <mxGeometry x="350.18" y="285" width="319.82" height="30" as="geometry"/>
                </mxCell>
                <mxCell id="160" value="" style="rounded=0;whiteSpace=wrap;html=1;container=0;" parent="1" vertex="1">
                    <mxGeometry x="350" y="470" width="320" height="60" as="geometry"/>
                </mxCell>
                <mxCell id="161" value="0x7C00" style="text;html=1;align=center;verticalAlign=middle;whiteSpace=wrap;rounded=0;rotation=-35;container=0;" parent="1" vertex="1">
                    <mxGeometry x="340" y="430" width="60" height="30" as="geometry"/>
                </mxCell>
                <mxCell id="162" value="0x7E00" style="text;html=1;align=center;verticalAlign=middle;whiteSpace=wrap;rounded=0;rotation=-35;container=0;" parent="1" vertex="1">
                    <mxGeometry x="660" y="430" width="60" height="30" as="geometry"/>
                </mxCell>
                <mxCell id="163" value="" style="rounded=0;whiteSpace=wrap;html=1;container=0;" parent="1" vertex="1">
                    <mxGeometry x="670" y="470" width="320" height="60" as="geometry"/>
                </mxCell>
                <mxCell id="165" value="" style="rounded=0;whiteSpace=wrap;html=1;container=0;" parent="1" vertex="1">
                    <mxGeometry x="30" y="470" width="320" height="60" as="geometry"/>
                </mxCell>
                <mxCell id="166" value="FAT" style="rounded=0;whiteSpace=wrap;html=1;container=0;" parent="1" vertex="1">
                    <mxGeometry x="30.00179212606455" y="485" width="237" height="30" as="geometry"/>
                </mxCell>
                <mxCell id="167" value="Stack" style="rounded=0;whiteSpace=wrap;html=1;container=0;" parent="1" vertex="1">
                    <mxGeometry x="280" y="485" width="70" height="30" as="geometry"/>
                </mxCell>
                <mxCell id="168" value="&lt;font style=&quot;font-size: 24px;&quot;&gt;...&lt;/font&gt;" style="text;html=1;align=center;verticalAlign=middle;whiteSpace=wrap;rounded=0;container=0;" parent="1" vertex="1">
                    <mxGeometry x="1000" y="480" width="20" height="30" as="geometry"/>
                </mxCell>
                <mxCell id="169" value="0x0500" style="text;html=1;align=center;verticalAlign=middle;whiteSpace=wrap;rounded=0;rotation=-35;container=0;" parent="1" vertex="1">
                    <mxGeometry x="25" y="430" width="60" height="30" as="geometry"/>
                </mxCell>
                <mxCell id="171" value="&lt;span style=&quot;color: rgb(0, 0, 0);&quot;&gt;Stage 1&lt;/span&gt;" style="rounded=0;whiteSpace=wrap;html=1;container=0;" parent="1" vertex="1">
                    <mxGeometry x="350.18" y="485" width="319.82" height="30" as="geometry"/>
                </mxCell>
                <mxCell id="172" value="Root Directory" style="rounded=0;whiteSpace=wrap;html=1;container=0;" parent="1" vertex="1">
                    <mxGeometry x="670.0017921260644" y="485" width="206.82" height="30" as="geometry"/>
                </mxCell>
                <mxCell id="173" value="" style="rounded=0;whiteSpace=wrap;html=1;container=0;" parent="1" vertex="1">
                    <mxGeometry x="350" y="640" width="320" height="60" as="geometry"/>
                </mxCell>
                <mxCell id="174" value="0x7C00" style="text;html=1;align=center;verticalAlign=middle;whiteSpace=wrap;rounded=0;rotation=-35;container=0;" parent="1" vertex="1">
                    <mxGeometry x="340" y="600" width="60" height="30" as="geometry"/>
                </mxCell>
                <mxCell id="175" value="0x7E00" style="text;html=1;align=center;verticalAlign=middle;whiteSpace=wrap;rounded=0;rotation=-35;container=0;" parent="1" vertex="1">
                    <mxGeometry x="660" y="600" width="60" height="30" as="geometry"/>
                </mxCell>
                <mxCell id="176" value="" style="rounded=0;whiteSpace=wrap;html=1;container=0;" parent="1" vertex="1">
                    <mxGeometry x="670" y="640" width="320" height="60" as="geometry"/>
                </mxCell>
                <mxCell id="177" value="" style="rounded=0;whiteSpace=wrap;html=1;container=0;" parent="1" vertex="1">
                    <mxGeometry x="30" y="640" width="320" height="60" as="geometry"/>
                </mxCell>
                <mxCell id="178" value="FAT" style="rounded=0;whiteSpace=wrap;html=1;container=0;" parent="1" vertex="1">
                    <mxGeometry x="30.00179212606455" y="655" width="237" height="30" as="geometry"/>
                </mxCell>
                <mxCell id="179" value="Stack" style="rounded=0;whiteSpace=wrap;html=1;container=0;" parent="1" vertex="1">
                    <mxGeometry x="280" y="655" width="70" height="30" as="geometry"/>
                </mxCell>
                <mxCell id="180" value="&lt;font style=&quot;font-size: 24px;&quot;&gt;...&lt;/font&gt;" style="text;html=1;align=center;verticalAlign=middle;whiteSpace=wrap;rounded=0;container=0;" parent="1" vertex="1">
                    <mxGeometry x="1000" y="650" width="20" height="30" as="geometry"/>
                </mxCell>
                <mxCell id="181" value="0x0500" style="text;html=1;align=center;verticalAlign=middle;whiteSpace=wrap;rounded=0;rotation=-35;container=0;" parent="1" vertex="1">
                    <mxGeometry x="25" y="600" width="60" height="30" as="geometry"/>
                </mxCell>
                <mxCell id="183" value="&lt;span style=&quot;color: rgb(0, 0, 0);&quot;&gt;Stage 1&lt;/span&gt;" style="rounded=0;whiteSpace=wrap;html=1;container=0;" parent="1" vertex="1">
                    <mxGeometry x="350.18" y="655" width="319.82" height="30" as="geometry"/>
                </mxCell>
                <mxCell id="184" value="Stage 2" style="rounded=0;whiteSpace=wrap;html=1;container=0;" parent="1" vertex="1">
                    <mxGeometry x="670" y="655" width="309.82" height="30" as="geometry"/>
                </mxCell>
                <mxCell id="185" value="&lt;span style=&quot;color: rgb(0, 0, 0);&quot;&gt;Stage 1&lt;/span&gt;" style="rounded=0;whiteSpace=wrap;html=1;container=0;" vertex="1" parent="1">
                    <mxGeometry x="355.18" y="845" width="319.82" height="30" as="geometry"/>
                </mxCell>
                <mxCell id="186" value="&lt;font style=&quot;font-size: 24px;&quot;&gt;&lt;b&gt;RAM Layout of GBL throghout execution&lt;/b&gt;&lt;/font&gt;" style="text;html=1;align=center;verticalAlign=middle;resizable=0;points=[];autosize=1;strokeColor=none;fillColor=none;" vertex="1" parent="1">
                    <mxGeometry x="585" y="-30" width="490" height="40" as="geometry"/>
                </mxCell>
                <mxCell id="187" value="* Root Directory gets overwritten by Stage 2" style="text;html=1;align=center;verticalAlign=middle;resizable=0;points=[];autosize=1;strokeColor=none;fillColor=none;" vertex="1" parent="1">
                    <mxGeometry x="670" y="700" width="260" height="30" as="geometry"/>
                </mxCell>
            </root>
        </mxGraphModel>
    </diagram>
</mxfile>